<?xml version="1.0" encoding="UTF-8" standalone="no"?>
<svg
   id="visual"
   viewBox="0 0 960 540"
   width="960"
   height="540"
   version="1.1"
   sodipodi:docname="stacked-peaks.svg"
   inkscape:version="1.4 (e7c3feb100, 2024-10-09)"
   xmlns:inkscape="http://www.inkscape.org/namespaces/inkscape"
   xmlns:sodipodi="http://sodipodi.sourceforge.net/DTD/sodipodi-0.dtd"
   xmlns="http://www.w3.org/2000/svg"
   xmlns:svg="http://www.w3.org/2000/svg">
  <defs
     id="defs5" />
  <sodipodi:namedview
     id="namedview5"
     pagecolor="#dfdfdf"
     bordercolor="#eeeeee"
     borderopacity="1"
     inkscape:showpageshadow="0"
     inkscape:pageopacity="0"
     inkscape:pagecheckerboard="0"
     inkscape:deskcolor="#d1d1d1"
     showgrid="false"
     inkscape:zoom="1.4355741"
     inkscape:cx="404.36785"
     inkscape:cy="287.34149"
     inkscape:window-width="2560"
     inkscape:window-height="1408"
     inkscape:window-x="0"
     inkscape:window-y="0"
     inkscape:window-maximized="1"
     inkscape:current-layer="visual" />
  <path
     id="rect5"
     style="fill:#446488;fill-opacity:1;stroke-width:0.999999px"
     d="M 960,395.03906 C 925.82901,334.09287 877.90112,413.86369 831.89062,429.79297 783.97741,446.38099 738.20114,405.24122 695.00195,389.5 c -43.19918,-15.74123 -81.84317,6.06184 -127.86718,5.80469 -46.02402,-0.25715 -99.48962,28.14268 -143.91602,19.25 -44.4264,-8.89268 -69.57855,-61.06718 -114.75977,-38.13867 -45.18122,22.92851 -79.60719,58.32213 -114.50195,14.39843 C 159.06226,346.89074 98.903019,367.81971 69.265625,388.93359 41.217146,408.91552 24.694594,420.34424 0,422.52344 V 540 h 960 z" />
  <path
     id="path14"
     style="fill:#345981;fill-opacity:1;stroke-width:1.00865px"
     d="m 960,273.40039 c -19.66558,6.1333 -38.95101,4.2181 -63.02148,8.52459 -25.77333,4.61114 -53.25653,-16.25968 -86.78907,-0.80279 -33.53255,15.45689 -73.57314,48.07096 -107.35937,60.1311 -33.78624,12.06013 -60.43693,-0.64909 -62.0957,-36.73519 -1.65878,-36.08609 -36.15273,-16.56621 -72.02344,-26.1202 -35.87071,-9.55398 -68.91098,45.43497 -107.64063,40.95575 -38.72965,-4.4792 -60.73906,-53.17368 -99.125,-43.72773 -38.38594,9.44596 -53.74492,74.65453 -85.84179,57.09285 -32.09686,-17.56168 -39.99148,-43.5484 -77.71875,-39.58864 -37.72727,3.95975 -86.41554,3.8186 -120.755864,6.33283 C 45.503213,301.81505 20.211527,302.44318 0,286.49725 V 425.1161 c 24.694594,-2.21708 41.217146,-13.8445 69.265625,-34.17384 29.637394,-21.48097 89.796635,-42.77381 124.691405,1.91356 34.89476,44.68736 69.32073,8.67838 114.50195,-14.64876 45.18122,-23.32715 70.33337,29.75446 114.75977,38.80175 44.4264,9.04729 97.892,-19.8463 143.91602,-19.58468 46.02401,0.26162 84.668,-21.92052 127.86718,-5.90561 43.19919,16.01489 88.97546,57.86992 136.88867,40.9935 C 877.90112,416.3058 925.82901,335.14807 960,397.15388 Z" />
  <path
     id="path13"
     style="fill:#2a527a;fill-opacity:1;stroke-width:1.00792px"
     d="M 88.707031,213.11412 C 73.446247,212.79904 59.213039,213.80058 46.042969,217.98333 18.186943,226.83028 6.449,236.49569 0,223.23548 v 64.20248 c 20.211527,15.92273 45.503213,15.29551 77.628906,12.94685 34.340324,-2.51058 83.028594,-2.36963 120.755864,-6.32362 37.72727,-3.954 45.62189,21.99491 77.71875,39.53105 32.09687,17.53613 47.45585,-47.57757 85.84179,-57.00979 38.38594,-9.43221 60.39535,39.19143 99.125,43.66411 38.72965,4.4727 71.76992,-50.43624 107.64063,-40.89616 35.87071,9.54008 70.36467,-9.9514 72.02344,26.08219 1.65877,36.03361 28.30946,48.72434 62.0957,36.68175 33.78623,-12.04259 73.82682,-44.60922 107.35937,-60.04362 33.53254,-15.43441 61.01574,5.40605 86.78907,0.80162 24.07047,-4.30022 43.3559,-2.38781 63.02148,-8.51219 v -48.14441 c -9.80331,9.80297 -17.98775,17.02281 -47.01172,20.48875 -33.08477,3.95088 -84.51753,-18.20779 -132.73437,-25.94528 -48.21684,-7.7375 -104.46523,2.92983 -154.09766,7.65501 -49.63244,4.72518 -96.00153,22.47994 -145.32617,16.95293 -49.32465,-5.52699 -102.17785,16.72621 -148.70117,-9.33561 -46.52332,-26.06184 -109.13748,-20.24204 -158.71289,-18.9907 -30.98463,0.7821 -59.27435,-3.40159 -84.708989,-3.92672 z" />
  <path
     id="path12"
     style="fill:#214568;fill-opacity:1;stroke-width:1.01143px"
     d="M 47.324219,66.658421 C 31.720058,66.160946 12.499603,84.970001 0,92.926541 V 226.67276 c 6.449,13.35271 18.186943,3.61988 46.042969,-5.28878 35.120188,-11.23181 77.797651,0.31102 127.373051,-0.94906 49.57541,-1.26007 112.18957,-7.12047 158.71289,19.12316 46.52332,26.24361 99.37652,3.83518 148.70117,9.40073 49.32464,5.56556 95.69373,-12.31304 145.32617,-17.07118 49.63243,-4.75814 105.88082,-15.49987 154.09766,-7.70841 48.21684,7.79147 99.6496,30.10469 132.73437,26.12626 C 942.01225,246.81536 950.19669,239.54516 960,229.67381 V 94.632859 c -12.44229,-1.031328 -33.9178,8.384641 -49.33008,10.953211 -27.7449,14.7263 -59.17209,11.50548 -89.23242,8.6255 -35.1218,-1.63006 -69.54371,-9.30333 -104.00195,-14.673544 -23.84014,-6.869701 -39.64693,-8.738691 -71.6543,-13.358839 -36.71606,-8.814447 -74.07744,-12.102515 -111.7168,-10.781377 -33.59537,0.994183 -60.00473,30.29636 -93.13867,26.98341 -29.85811,-8.878643 -60.98931,-2.498299 -91.65039,-3.982072 -23.60159,-2.3412 -60.64976,8.675872 -67.98047,8.056062 -25.92101,6.06898 -52.57124,5.83737 -79.03515,5.60049 -30.77866,4.92897 -62.27728,7.04147 -93.66407,1.76026 C 85.40086,110.49066 83.232756,92.443997 61.339844,74.70849 57.324813,69.135364 52.525606,66.824246 47.324219,66.658421 Z" />
  <path
     id="path11"
     style="fill:#133652;fill-opacity:1;stroke-width:1.01196px"
     d="M 0,0 V 94.558284 C 16.666137,83.938407 45.279719,54.005125 61.339844,76.321072 83.232756,94.075233 85.400857,112.14088 108.5957,115.46967 c 31.38679,5.28677 62.88541,3.17204 93.66407,-1.76211 26.46391,0.23713 53.11414,0.46898 79.03515,-5.60637 7.33071,0.62046 44.37888,-10.408205 67.98047,-8.06454 30.66108,1.48533 61.79228,-4.901728 91.65039,3.98626 33.13394,3.31642 59.5433,-26.016564 93.13867,-27.011792 37.63936,-1.322528 75.00074,1.968998 111.7168,10.792717 32.00737,4.625006 47.81416,6.495962 71.6543,13.372885 34.45824,5.37586 68.88015,13.05721 104.00195,14.68898 30.06033,2.88301 61.48752,6.10722 89.23242,-8.63457 C 926.0822,104.65986 947.55771,95.233985 960,96.266397 V 0 Z" />
</svg>
